<svg class="bob" font-family="Courier New" font-size="14" height="464" width="272" xmlns="http://www.w3.org/2000/svg">
<defs>
<marker id="triangle" markerHeight="8" markerWidth="8" orient="auto" refX="4" refY="2" viewBox="0 0 8 4">
<polygon class="fg_fill" points="0,0 0,4 8,2 0,0"/>
</marker>
<marker id="clear_triangle" markerHeight="10" markerWidth="10" orient="auto" refX="1" refY="7" viewBox="0 0 20 14">
<polygon class="bg_fill" points="2,2 2,12 18,7 2,2"/>
</marker>
<marker id="circle" markerHeight="5" markerWidth="5" orient="auto" refX="10" refY="10" viewBox="0 0 20 20">
<circle class="fg_fill" cx="10" cy="10" r="8"/>
</marker>
<marker id="square" markerHeight="5" markerWidth="5" orient="auto" refX="10" refY="10" viewBox="0 0 20 20">
<rect class="fg_fill" height="20" width="20" x="0" y="0"/>
</marker>
<marker id="open_circle" markerHeight="10" markerWidth="10" orient="auto" refX="10" refY="10" viewBox="0 0 20 20">
<circle class="bg_fill" cx="10" cy="10" r="4"/>
</marker>
<marker id="big_open_circle" markerHeight="20" markerWidth="20" orient="auto" refX="20" refY="20" viewBox="0 0 40 40">
<circle class="bg_fill" cx="20" cy="20" r="6"/>
</marker>
</defs>
<style type="text/css">

rect.backdrop {
    fill: white;
}
text{
    fill: black;
}

circle {
    fill: none;
    stroke: black;
    stroke-width: 2;
}

line {
    stroke: black;
    stroke-width: 2;
    stroke-opacity: 1;
    fill-opacity: 1;
    stroke-linecap: round;
    stroke-linejoin: miter;
}

path {
    fill: none;
    stroke: black;
    stroke-width: 2;
    stroke-opacity: 1;
    fill-opacity: 1;
    stroke-linecap: round;
    stroke-linejoin: miter;
}

line.dashed {
    stroke-dasharray: 5;
}

.fg_fill {
    fill: black;
}


.bg_fill {
    fill: white;
    stroke: black;
    stroke-width: 2;
}

tspan.head{
    fill: none;
    stroke: none;
}
    
</style>
<rect class="backdrop" height="464" width="272" x="0" y="0"/>
<g>
<line x1="4" x2="4" y1="12" y2="100"/>
<path d="M 4 100 A 4 4 0 0 0 8 104"/>
<path d="M 8 8 A 4 4 0 0 0 4 12"/>
</g>
<g>
<line x1="8" x2="256" y1="8" y2="8"/>
<path d="M 260 12 A 4 4 0 0 0 256 8"/>
</g>
<g>
<line x1="8" x2="52" y1="104" y2="104"/>
<line marker-end="url(#triangle)" x1="52" x2="52" y1="104" y2="172"/>
<line x1="52" x2="256" y1="104" y2="104"/>
<path d="M 256 104 A 4 4 0 0 0 260 100"/>
</g>
<g>
<line x1="12" x2="12" y1="188" y2="276"/>
<path d="M 12 276 A 4 4 0 0 0 16 280"/>
<path d="M 16 184 A 4 4 0 0 0 12 188"/>
</g>
<g>
<line x1="12" x2="12" y1="364" y2="452"/>
<path d="M 12 452 A 4 4 0 0 0 16 456"/>
<path d="M 16 360 A 4 4 0 0 0 12 364"/>
</g>
<g>
<line x1="16" x2="188" y1="184" y2="184"/>
<line x1="188" x2="188" y1="128" y2="184"/>
<line x1="188" x2="232" y1="184" y2="184"/>
<path d="M 236 188 A 4 4 0 0 0 232 184"/>
</g>
<g>
<line x1="16" x2="44" y1="280" y2="280"/>
<line marker-end="url(#triangle)" x1="44" x2="44" y1="280" y2="348"/>
<line x1="44" x2="232" y1="280" y2="280"/>
<path d="M 232 280 A 4 4 0 0 0 236 276"/>
</g>
<g>
<line x1="16" x2="188" y1="360" y2="360"/>
<line x1="188" x2="188" y1="304" y2="360"/>
<line x1="188" x2="224" y1="360" y2="360"/>
<path d="M 228 364 A 4 4 0 0 0 224 360"/>
</g>
<g>
<line x1="16" x2="224" y1="456" y2="456"/>
<path d="M 224 456 A 4 4 0 0 0 228 452"/>
</g>
<g>
<line marker-end="url(#triangle)" x1="188" x2="188" y1="128" y2="116"/>
</g>
<g>
<line marker-end="url(#triangle)" x1="188" x2="188" y1="304" y2="292"/>
</g>
<g>
<line x1="228" x2="228" y1="364" y2="452"/>
</g>
<g>
<line x1="236" x2="236" y1="188" y2="276"/>
</g>
<g>
<line x1="260" x2="260" y1="12" y2="100"/>
</g>
<g>
<text x="17" y="60">
*
</text>
</g>
<g>
<text x="17" y="76">
*
</text>
</g>
<g>
<text x="17" y="92">
*
</text>
</g>
<g>
<text x="25" y="236">
*
</text>
</g>
<g>
<text x="25" y="252">
*
</text>
</g>
<g>
<text x="25" y="268">
*
</text>
</g>
<g>
<text x="25" y="412">
*
</text>
</g>
<g>
<text x="25" y="428">
*
</text>
</g>
<g>
<text x="25" y="444">
*
</text>
</g>
<g>
<text x="33" y="60">
Raise
</text>
</g>
<g>
<text x="33" y="76">
Stop
</text>
</g>
<g>
<text x="33" y="92">
Reverse
</text>
</g>
<g>
<text x="41" y="236">
Lower
</text>
</g>
<g>
<text x="41" y="252">
Spin
</text>
</g>
<g>
<text x="41" y="268">
Run
</text>
</g>
<g>
<text x="41" y="412">
Stop
</text>
</g>
<g>
<text x="41" y="428">
Spin
</text>
</g>
<g>
<text x="41" y="444">
Run
</text>
</g>
<g>
<text x="57" y="316">
Spit
</text>
</g>
<g>
<text x="57" y="332">
or
</text>
</g>
<g>
<text x="65" y="140">
Lower
</text>
</g>
<g>
<text x="65" y="156">
button
</text>
</g>
<g>
<text x="73" y="28">
Raise
</text>
</g>
<g>
<text x="73" y="76">
spinning
</text>
</g>
<g>
<text x="73" y="268">
belts
</text>
</g>
<g>
<text x="73" y="444">
belts
</text>
</g>
<g>
<text x="81" y="60">
acquisition
</text>
</g>
<g>
<text x="81" y="252">
stars
</text>
</g>
<g>
<text x="81" y="332">
jammed
</text>
</g>
<g>
<text x="81" y="412">
acquisition
</text>
</g>
<g>
<text x="81" y="428">
stars
</text>
</g>
<g>
<text x="89" y="236">
acquisition
</text>
</g>
<g>
<text x="89" y="380">
Spit
</text>
</g>
<g>
<text x="97" y="92">
belts
</text>
</g>
<g>
<text x="97" y="316">
button
</text>
</g>
<g>
<text x="113" y="204">
Lower
</text>
</g>
<g>
<text x="121" y="28">
(default)
</text>
</g>
<g>
<text x="121" y="268">
forward
</text>
</g>
<g>
<text x="121" y="444">
reverse
</text>
</g>
<g>
<text x="129" y="252">
forward
</text>
</g>
<g>
<text x="129" y="428">
reverse
</text>
</g>
<g>
<text x="145" y="76">
stars
</text>
</g>
<g>
<text x="145" y="92">
for
</text>
</g>
<g>
<text x="177" y="92">
2
</text>
</g>
<g>
<text x="193" y="92">
seconds
</text>
</g>
<g>
<text x="201" y="140">
Raise
</text>
</g>
<g>
<text x="201" y="156">
button
</text>
</g>
<g>
<text x="201" y="316">
After
</text>
</g>
<g>
<text x="201" y="332">
2
</text>
</g>
<g>
<text x="217" y="332">
seconds
</text>
</g>
</svg>
