<svg class="bob" font-family="Deja Vu Sans Mono" font-size="14" height="496" width="360" xmlns="http://www.w3.org/2000/svg">
<defs>
<marker id="triangle" markerHeight="8" markerWidth="8" orient="auto" refX="4" refY="2" viewBox="0 0 8 4">
<polygon class="fg_fill" points="0,0 0,4 8,2 0,0"/>
</marker>
<marker id="clear_triangle" markerHeight="10" markerWidth="10" orient="auto" refX="1" refY="7" viewBox="0 0 20 14">
<polygon class="bg_fill" points="2,2 2,12 18,7 2,2"/>
</marker>
<marker id="circle" markerHeight="5" markerWidth="5" orient="auto" refX="10" refY="10" viewBox="0 0 20 20">
<circle class="fg_fill" cx="10" cy="10" r="8"/>
</marker>
<marker id="square" markerHeight="5" markerWidth="5" orient="auto" refX="10" refY="10" viewBox="0 0 20 20">
<rect class="fg_fill" height="20" width="20" x="0" y="0"/>
</marker>
<marker id="open_circle" markerHeight="10" markerWidth="10" orient="auto" refX="10" refY="10" viewBox="0 0 20 20">
<circle class="bg_fill" cx="10" cy="10" r="4"/>
</marker>
<marker id="big_open_circle" markerHeight="20" markerWidth="20" orient="auto" refX="20" refY="20" viewBox="0 0 40 40">
<circle class="bg_fill" cx="20" cy="20" r="6"/>
</marker>
</defs>
<style type="text/css">

rect.backdrop {
    fill: white;
}
text{
    fill: black;
}

circle {
    fill: none;
    stroke: black;
    stroke-width: 2;
}

line {
    stroke: black;
    stroke-width: 2;
    stroke-opacity: 1;
    fill-opacity: 1;
    stroke-linecap: round;
    stroke-linejoin: miter;
}

path {
    fill: none;
    stroke: black;
    stroke-width: 2;
    stroke-opacity: 1;
    fill-opacity: 1;
    stroke-linecap: round;
    stroke-linejoin: miter;
}

line.dashed {
    stroke-dasharray: 5;
}

.fg_fill {
    fill: black;
}


.bg_fill {
    fill: white;
    stroke: black;
    stroke-width: 2;
}

tspan.head{
    fill: none;
    stroke: none;
}
    
</style>
<rect class="backdrop" height="496" width="360" x="0" y="0"/>
<g>
<line x1="4" x2="4" y1="44" y2="132"/>
<path d="M 4 132 A 4 4 0 0 0 8 136"/>
<path d="M 8 40 A 4 4 0 0 0 4 44"/>
</g>
<g>
<line x1="8" x2="256" y1="40" y2="40"/>
<path d="M 260 44 A 4 4 0 0 0 256 40"/>
</g>
<g>
<line x1="8" x2="52" y1="136" y2="136"/>
<line marker-end="url(#triangle)" x1="52" x2="52" y1="136" y2="204"/>
<line x1="52" x2="256" y1="136" y2="136"/>
<path d="M 256 136 A 4 4 0 0 0 260 132"/>
</g>
<g>
<line x1="12" x2="12" y1="220" y2="308"/>
<path d="M 12 308 A 4 4 0 0 0 16 312"/>
<path d="M 16 216 A 4 4 0 0 0 12 220"/>
</g>
<g>
<line x1="12" x2="12" y1="396" y2="484"/>
<path d="M 12 484 A 4 4 0 0 0 16 488"/>
<path d="M 16 392 A 4 4 0 0 0 12 396"/>
</g>
<g>
<line x1="16" x2="188" y1="216" y2="216"/>
<line x1="188" x2="188" y1="160" y2="216"/>
<line x1="188" x2="232" y1="216" y2="216"/>
<path d="M 236 220 A 4 4 0 0 0 232 216"/>
</g>
<g>
<line x1="16" x2="44" y1="312" y2="312"/>
<line marker-end="url(#triangle)" x1="44" x2="44" y1="312" y2="380"/>
<line x1="44" x2="232" y1="312" y2="312"/>
<path d="M 232 312 A 4 4 0 0 0 236 308"/>
</g>
<g>
<line x1="16" x2="188" y1="392" y2="392"/>
<line x1="188" x2="188" y1="336" y2="392"/>
<line x1="188" x2="224" y1="392" y2="392"/>
<path d="M 228 396 A 4 4 0 0 0 224 392"/>
</g>
<g>
<line x1="16" x2="224" y1="488" y2="488"/>
<path d="M 224 488 A 4 4 0 0 0 228 484"/>
</g>
<g>
<line marker-end="url(#triangle)" x1="188" x2="188" y1="160" y2="148"/>
</g>
<g>
<line marker-end="url(#triangle)" x1="188" x2="188" y1="336" y2="324"/>
</g>
<g>
<line x1="228" x2="228" y1="396" y2="484"/>
</g>
<g>
<line x1="236" x2="236" y1="220" y2="308"/>
</g>
<g>
<line x1="260" x2="260" y1="44" y2="132"/>
</g>
<g>
<text x="17" y="92">
*
</text>
</g>
<g>
<text x="17" y="108">
*
</text>
</g>
<g>
<text x="17" y="124">
*
</text>
</g>
<g>
<text x="25" y="268">
*
</text>
</g>
<g>
<text x="25" y="284">
*
</text>
</g>
<g>
<text x="25" y="300">
*
</text>
</g>
<g>
<text x="25" y="444">
*
</text>
</g>
<g>
<text x="25" y="460">
*
</text>
</g>
<g>
<text x="25" y="476">
*
</text>
</g>
<g>
<text x="33" y="92">
Raise
</text>
</g>
<g>
<text x="33" y="108">
Stop
</text>
</g>
<g>
<text x="33" y="124">
Reverse
</text>
</g>
<g>
<text x="41" y="268">
Lower
</text>
</g>
<g>
<text x="41" y="284">
Spin
</text>
</g>
<g>
<text x="41" y="300">
Run
</text>
</g>
<g>
<text x="41" y="444">
Stop
</text>
</g>
<g>
<text x="41" y="460">
Spin
</text>
</g>
<g>
<text x="41" y="476">
Run
</text>
</g>
<g>
<text x="49" y="12">
Acquisition
</text>
</g>
<g>
<text x="57" y="348">
Spit
</text>
</g>
<g>
<text x="57" y="364">
or
</text>
</g>
<g>
<text x="65" y="172">
Lower
</text>
</g>
<g>
<text x="65" y="188">
button
</text>
</g>
<g>
<text x="73" y="60">
Raise
</text>
</g>
<g>
<text x="73" y="108">
spinning
</text>
</g>
<g>
<text x="73" y="300">
belts
</text>
</g>
<g>
<text x="73" y="476">
belts
</text>
</g>
<g>
<text x="81" y="92">
acquisition
</text>
</g>
<g>
<text x="81" y="284">
stars
</text>
</g>
<g>
<text x="81" y="364">
jammed
</text>
</g>
<g>
<text x="81" y="444">
acquisition
</text>
</g>
<g>
<text x="81" y="460">
stars
</text>
</g>
<g>
<text x="89" y="268">
acquisition
</text>
</g>
<g>
<text x="89" y="412">
Spit
</text>
</g>
<g>
<text x="97" y="124">
belts
</text>
</g>
<g>
<text x="97" y="348">
button
</text>
</g>
<g>
<text x="113" y="236">
Lower
</text>
</g>
<g>
<text x="121" y="60">
(default)
</text>
</g>
<g>
<text x="121" y="300">
forward
</text>
</g>
<g>
<text x="121" y="476">
reverse
</text>
</g>
<g>
<text x="129" y="284">
forward
</text>
</g>
<g>
<text x="129" y="460">
reverse
</text>
</g>
<g>
<text x="145" y="12">
States
</text>
</g>
<g>
<text x="145" y="108">
stars
</text>
</g>
<g>
<text x="145" y="124">
for
</text>
</g>
<g>
<text x="177" y="124">
2
</text>
</g>
<g>
<text x="193" y="124">
seconds
</text>
</g>
<g>
<text x="201" y="172">
Raise
</text>
</g>
<g>
<text x="201" y="188">
button
</text>
</g>
<g>
<text x="201" y="348">
After
</text>
</g>
<g>
<text x="201" y="364">
2
</text>
</g>
<g>
<text x="217" y="364">
seconds
</text>
</g>
</svg>
