<svg class="bob" font-family="Courier New" font-size="14" height="256" width="512" xmlns="http://www.w3.org/2000/svg">
<defs>
<marker id="triangle" markerHeight="8" markerWidth="8" orient="auto" refX="4" refY="2" viewBox="0 0 8 4">
<polygon class="fg_fill" points="0,0 0,4 8,2 0,0"/>
</marker>
<marker id="clear_triangle" markerHeight="10" markerWidth="10" orient="auto" refX="1" refY="7" viewBox="0 0 20 14">
<polygon class="bg_fill" points="2,2 2,12 18,7 2,2"/>
</marker>
<marker id="circle" markerHeight="5" markerWidth="5" orient="auto" refX="10" refY="10" viewBox="0 0 20 20">
<circle class="fg_fill" cx="10" cy="10" r="8"/>
</marker>
<marker id="square" markerHeight="5" markerWidth="5" orient="auto" refX="10" refY="10" viewBox="0 0 20 20">
<rect class="fg_fill" height="20" width="20" x="0" y="0"/>
</marker>
<marker id="open_circle" markerHeight="10" markerWidth="10" orient="auto" refX="10" refY="10" viewBox="0 0 20 20">
<circle class="bg_fill" cx="10" cy="10" r="4"/>
</marker>
<marker id="big_open_circle" markerHeight="20" markerWidth="20" orient="auto" refX="20" refY="20" viewBox="0 0 40 40">
<circle class="bg_fill" cx="20" cy="20" r="6"/>
</marker>
</defs>
<style type="text/css">

rect.backdrop {
    fill: white;
}
text{
    fill: black;
}

circle {
    fill: none;
    stroke: black;
    stroke-width: 2;
}

line {
    stroke: black;
    stroke-width: 2;
    stroke-opacity: 1;
    fill-opacity: 1;
    stroke-linecap: round;
    stroke-linejoin: miter;
}

path {
    fill: none;
    stroke: black;
    stroke-width: 2;
    stroke-opacity: 1;
    fill-opacity: 1;
    stroke-linecap: round;
    stroke-linejoin: miter;
}

line.dashed {
    stroke-dasharray: 5;
}

.fg_fill {
    fill: black;
}


.bg_fill {
    fill: white;
    stroke: black;
    stroke-width: 2;
}

tspan.head{
    fill: none;
    stroke: none;
}
    
</style>
<rect class="backdrop" height="256" width="512" x="0" y="0"/>
<g>
<line x1="4" x2="4" y1="12" y2="68"/>
<path d="M 4 68 A 4 4 0 0 0 8 72"/>
<path d="M 8 8 A 4 4 0 0 0 4 12"/>
</g>
<g>
<line x1="8" x2="240" y1="8" y2="8"/>
<path d="M 244 12 A 4 4 0 0 0 240 8"/>
</g>
<g>
<line x1="8" x2="240" y1="72" y2="72"/>
<path d="M 240 72 A 4 4 0 0 0 244 68"/>
</g>
<g>
<line x1="12" x2="12" y1="156" y2="244"/>
<path d="M 12 244 A 4 4 0 0 0 16 248"/>
<path d="M 16 152 A 4 4 0 0 0 12 156"/>
</g>
<g>
<line x1="16" x2="188" y1="152" y2="152"/>
<line x1="188" x2="188" y1="96" y2="152"/>
<line x1="188" x2="232" y1="152" y2="152"/>
<path d="M 236 156 A 4 4 0 0 0 232 152"/>
</g>
<g>
<line x1="16" x2="232" y1="248" y2="248"/>
<path d="M 232 248 A 4 4 0 0 0 236 244"/>
</g>
<g>
<line marker-end="url(#triangle)" x1="52" x2="52" y1="80" y2="140"/>
</g>
<g>
<line marker-end="url(#triangle)" x1="188" x2="188" y1="96" y2="84"/>
</g>
<g>
<line x1="236" x2="236" y1="156" y2="244"/>
</g>
<g>
<line x1="236" x2="444" y1="216" y2="216"/>
<line x1="444" x2="444" y1="112" y2="216"/>
</g>
<g>
<line x1="244" x2="244" y1="12" y2="40"/>
<line x1="244" x2="244" y1="40" y2="68"/>
<line marker-end="url(#triangle)" x1="244" x2="324" y1="40" y2="40"/>
</g>
<g>
<line marker-end="url(#triangle)" x1="248" x2="244" y1="184" y2="184"/>
<line x1="248" x2="372" y1="184" y2="184"/>
<line x1="372" x2="372" y1="88" y2="184"/>
<line x1="372" x2="504" y1="88" y2="88"/>
<path d="M 504 88 A 4 4 0 0 0 508 84"/>
</g>
<g>
<line x1="332" x2="332" y1="12" y2="84"/>
<path d="M 332 84 A 4 4 0 0 0 336 88"/>
<path d="M 336 8 A 4 4 0 0 0 332 12"/>
</g>
<g>
<line x1="336" x2="504" y1="8" y2="8"/>
<path d="M 508 12 A 4 4 0 0 0 504 8"/>
</g>
<g>
<line x1="336" x2="372" y1="88" y2="88"/>
</g>
<g>
<line marker-end="url(#triangle)" x1="444" x2="444" y1="112" y2="100"/>
</g>
<g>
<line x1="508" x2="508" y1="12" y2="84"/>
</g>
<g>
<text x="17" y="60">
*
</text>
</g>
<g>
<text x="25" y="204">
*
</text>
</g>
<g>
<text x="25" y="220">
*
</text>
</g>
<g>
<text x="33" y="60">
Stop
</text>
</g>
<g>
<text x="41" y="204">
Spin
</text>
</g>
<g>
<text x="41" y="220">
Ends
</text>
</g>
<g>
<text x="41" y="236">
sensor
</text>
</g>
<g>
<text x="65" y="108">
Eye
</text>
</g>
<g>
<text x="65" y="124">
not
</text>
</g>
<g>
<text x="73" y="60">
spinning
</text>
</g>
<g>
<text x="81" y="28">
None
</text>
</g>
<g>
<text x="81" y="204">
forward
</text>
</g>
<g>
<text x="81" y="220">
when
</text>
</g>
<g>
<text x="97" y="108">
1
</text>
</g>
<g>
<text x="97" y="124">
Eye
</text>
</g>
<g>
<text x="97" y="236">
is
</text>
</g>
<g>
<text x="105" y="172">
Index
</text>
</g>
<g>
<text x="113" y="108">
and
</text>
</g>
<g>
<text x="121" y="28">
(default)
</text>
</g>
<g>
<text x="121" y="220">
position
</text>
</g>
<g>
<text x="121" y="236">
active
</text>
</g>
<g>
<text x="129" y="124">
5
</text>
</g>
<g>
<text x="145" y="204">
72
</text>
</g>
<g>
<text x="169" y="204">
degrees
</text>
</g>
<g>
<text x="201" y="124">
End
</text>
</g>
<g>
<text x="265" y="60">
Shoot
</text>
</g>
<g>
<text x="265" y="76">
button
</text>
</g>
<g>
<text x="281" y="236">
Eye
</text>
</g>
<g>
<text x="313" y="236">
1-5
</text>
</g>
<g>
<text x="345" y="60">
*
</text>
</g>
<g>
<text x="345" y="236">
blocked
</text>
</g>
<g>
<text x="361" y="60">
After
</text>
</g>
<g>
<text x="361" y="76">
and
</text>
</g>
<g>
<text x="393" y="28">
Shoot
</text>
</g>
<g>
<text x="393" y="76">
spin
</text>
</g>
<g>
<text x="409" y="60">
orientation
</text>
</g>
<g>
<text x="433" y="76">
up
</text>
</g>
</svg>
